<svg width="26" height="26" viewBox="0 0 26 26" fill="none" xmlns="http://www.w3.org/2000/svg">
<path d="M2.41406 5.28029H21.9395V2.61529C21.9395 2.49507 21.9128 2.37634 21.8614 2.26767C21.8099 2.159 21.735 2.0631 21.642 1.98688C21.5491 1.91066 21.4403 1.85602 21.3237 1.82691C21.207 1.7978 21.0854 1.79494 20.9675 1.81853L2.28 4.88978C2.14085 4.91749 2.01137 4.98114 1.90446 5.07442C1.79755 5.1677 1.71693 5.28735 1.67063 5.42146C1.90731 5.3279 2.15956 5.28 2.41406 5.28029ZM23.5391 6.49904H2.41406C2.19857 6.49904 1.99191 6.58464 1.83954 6.73702C1.68716 6.88939 1.60156 7.09605 1.60156 7.31154V21.9365C1.60156 22.152 1.68716 22.3587 1.83954 22.5111C1.99191 22.6634 2.19857 22.749 2.41406 22.749H23.5391C23.7546 22.749 23.9612 22.6634 24.1136 22.5111C24.266 22.3587 24.3516 22.152 24.3516 21.9365V7.31154C24.3516 7.09605 24.266 6.88939 24.1136 6.73702C23.9612 6.58464 23.7546 6.49904 23.5391 6.49904ZM18.6895 16.249C18.3681 16.249 18.0539 16.1537 17.7867 15.9752C17.5194 15.7966 17.3111 15.5428 17.1881 15.2459C17.0652 14.949 17.033 14.6222 17.0957 14.307C17.1584 13.9918 17.3131 13.7023 17.5404 13.475C17.7677 13.2477 18.0572 13.093 18.3724 13.0303C18.6877 12.9676 19.0144 12.9997 19.3113 13.1227C19.6082 13.2457 19.862 13.454 20.0406 13.7212C20.2191 13.9885 20.3145 14.3026 20.3145 14.624C20.3145 15.055 20.1432 15.4683 19.8385 15.7731C19.5338 16.0778 19.1204 16.249 18.6895 16.249Z" fill="#124EC5"/>
<path d="M1.58984 13.1777V5.89062C1.58984 5.26449 1.88031 4.95219 2.37289 4.875C4.16039 4.59418 7.88672 4.44336 7.88672 4.44336C7.88672 4.44336 7.46371 5.25586 6.49887 5.25586V6.5C7.43832 6.5 8.08984 7.69336 8.08984 7.69336L4.30664 11.9844L1.58984 13.1777Z" fill="#124EC5"/>
</svg>
